<svg width="16" height="16" viewBox="0 0 16 16" fill="none" xmlns="http://www.w3.org/2000/svg">
<g clip-path="url(#clip0_69_2118)">
<path d="M12.7822 6.92444C11.5022 9.44 9.44 11.4933 6.92444 12.7822L4.96889 10.8267C4.72889 10.5867 4.37333 10.5067 4.06222 10.6133C3.06667 10.9422 1.99111 11.12 0.888888 11.12C0.4 11.12 0 11.52 0 12.0089V15.1111C0 15.6 0.4 16 0.888888 16C9.23556 16 16 9.23556 16 0.888889C16 0.4 15.6 0 15.1111 0H12C11.5111 0 11.1111 0.4 11.1111 0.888889C11.1111 2 10.9333 3.06667 10.6044 4.06222C10.5067 4.37333 10.5778 4.72 10.8267 4.96889L12.7822 6.92444Z" fill="white"/>
</g>
<defs>
<clipPath id="clip0_69_2118">
<rect width="16" height="16" fill="white" transform="matrix(-1 0 0 1 16 0)"/>
</clipPath>
</defs>
</svg>
